<svg class="team-item__icon"
     id="team-2"
     viewBox="0 0 70.87 79.06">
    <defs>
        <style>.cls-3{fill:none}.cls-3,.cls-4{stroke:#000;stroke-linecap:round;stroke-linejoin:round;stroke-width:2px}.cls-4{fill:#fff}</style>
    </defs>
    <g>
        <path class="cls-3"
              d="M49.89,9.66A8.72,8.72,0,0,1,49.26,13a8.86,8.86,0,0,1-2,3c-.52.22-1,.43-1.56.62a31.7,31.7,0,0,1-6.56,1.66,30.3,30.3,0,0,1-3.6.31,8.42,8.42,0,0,1-.87,0h-.21a30.84,30.84,0,0,1-3.75-.22,8,8,0,0,0-3.58-.84,6.85,6.85,0,0,0-.79,0,8,8,0,0,0-7.23,8,5.83,5.83,0,0,1,0,1.13,8,8,0,0,0-4.93-4.6c.1-.67.23-1.34.37-2a32.38,32.38,0,0,1,7-14.15,7.8,7.8,0,0,0-1.73-.81A31.78,31.78,0,0,1,24.35,3,32.51,32.51,0,0,1,35.64,1,32.46,32.46,0,0,1,46.79,3a8.74,8.74,0,0,1,3.1,6.7Z"
              stroke-dasharray="103.86056518554688"
              style="stroke-dashoffset: 0px;" />
        <path class="cls-3"
              d="M55.32,20.77A38.48,38.48,0,0,1,55.1,25a10.06,10.06,0,0,0-3.34,4.57V25.81a10,10,0,0,0-.24-2.2,10.08,10.08,0,0,0-5.83-7c.53-.19,1-.4,1.56-.62a8.86,8.86,0,0,0,2-3,8.72,8.72,0,0,0,.63-3.29,8.85,8.85,0,0,0-.59-3.18A10.16,10.16,0,0,1,54,10.77a38.35,38.35,0,0,1,1.15,6.65C55.28,18.52,55.32,19.64,55.32,20.77Z"
              stroke-dasharray="53.90440368652344"
              style="stroke-dashoffset: 0px;" />
        <path class="cls-4"
              d="M35.43,63.22,32,65.6l-6,4.15L19.89,56l-.05-.12a1.74,1.74,0,0,1,.26-1.83L21.82,52A.82.82,0,0,1,23,51.92l.55.5Z"
              stroke-dasharray="49.39094543457031"
              style="stroke-dashoffset: 0px; fill: #0bbbef;;" />
        <path class="cls-4"
              d="M51,55.9,51,56h0l-6,13.73-6-4.15-3.47-2.38,11.88-10.8.55-.5a.82.82,0,0,1,1.19.08l1.72,2.07A1.76,1.76,0,0,1,51,55.9Z"
              stroke-dasharray="49.36567687988281"
              style="stroke-dashoffset: 0px; fill: #0bbbef;;" />
        <path class="cls-4"
              d="M69.87,65.52v9a3.49,3.49,0,0,1-3.49,3.49H38.9L37.21,67.37,38.9,65.6l6,4.15L51,56h0l14.36,3.67A6,6,0,0,1,69.87,65.52Z"
              stroke-dasharray="100.30025482177734"
              style="stroke-dashoffset: 0px; fill: #0bbbef;;" />
        <path class="cls-4"
              d="M33.65,67.37,32,78.06H4.48A3.48,3.48,0,0,1,1,74.57v-9a6,6,0,0,1,4.53-5.83L19.89,56l6,13.73,6-4.15Z"
              stroke-dasharray="100.39443969726562"
              style="stroke-dashoffset: 0px; fill: #0bbbef;;" />
        <polygon class="cls-3"
                 points="37.21 67.37 38.9 78.06 31.97 78.06 33.65 67.37 31.97 65.6 35.43 63.22 38.9 65.6 37.21 67.37"
                 stroke-dasharray="41.86885452270508"
                 style="stroke-dashoffset: 0px;" />
        <polygon class="cls-3"
                 points="38.9 65.6 37.21 67.37 33.65 67.37 31.97 65.6 35.43 63.22 38.9 65.6"
                 stroke-dasharray="16.854887008666992"
                 style="stroke-dashoffset: 0px;" />
        <polygon class="cls-3"
                 points="38.9 78.06 31.97 78.06 33.65 67.37 37.21 67.37 38.9 78.06"
                 stroke-dasharray="32.13396072387695"
                 style="stroke-dashoffset: 0px;" />
        <path class="cls-3"
              d="M47.31,48v4.42L35.43,63.22,23.56,52.42V48c2.12,2.53,4.53,4.53,6.11,4.53H41.2C42.77,52.53,45.19,50.53,47.31,48Z"
              stroke-dasharray="68.02415466308594"
              style="stroke-dashoffset: 0px;" />
        <path class="cls-3"
              d="M51.52,23.61a10.08,10.08,0,0,0-5.83-7,31.7,31.7,0,0,1-6.56,1.66,30.3,30.3,0,0,1-3.6.31,8.42,8.42,0,0,1-.87,0h-.21a30.84,30.84,0,0,1-3.75-.22,8,8,0,0,0-3.58-.84,6.85,6.85,0,0,0-.79,0,8,8,0,0,0-7.23,8,2.28,2.28,0,0,0,0,.26v.9l0,0V39.47c0,2.08,2,5.65,4.46,8.53,2.12,2.53,4.53,4.53,6.11,4.53H41.2c1.57,0,4-2,6.11-4.53a27.63,27.63,0,0,0,3.25-4.8,12,12,0,0,0,1-2.48,5,5,0,0,0,.18-1.25V25.81A10,10,0,0,0,51.52,23.61Z"
              stroke-dasharray="117.45146179199219"
              style="stroke-dashoffset: 0px;" />
        <rect class="cls-3"
              x="38.2"
              y="28.25"
              width="9.56"
              height="6.62"
              rx="1.04"
              ry="1.04"
              stroke-dasharray="29.923126220703125"
              style="stroke-dashoffset: 0px;" />
        <rect class="cls-3"
              x="23.1"
              y="28.25"
              width="9.56"
              height="6.62"
              rx="1.04"
              ry="1.04"
              stroke-dasharray="29.92312240600586"
              style="stroke-dashoffset: 0px;" />
        <path class="cls-3"
              d="M32.67,32.06a2.77,2.77,0,1,1,5.53,0"
              stroke-dasharray="9.035321235656738"
              style="stroke-dashoffset: 0px;" />
    </g>
</svg>