<svg class="team-item__icon"
     viewBox="0 0 70.88 79.06"
     id="team-1">
    <defs>
        <style>.cls-1{fill:none}.cls-1,.cls-2{stroke:#000;stroke-linecap:round;stroke-linejoin:round;stroke-width:2px}.cls-2{fill:#fff}</style>
    </defs>
    <g>
        <path class="cls-1"
              d="M49.9,9.66a8.8,8.8,0,0,1-2.64,6.28c-.52.22-1,.43-1.57.62a31.77,31.77,0,0,1-6.55,1.66,30.48,30.48,0,0,1-3.6.31,8.42,8.42,0,0,1-.87,0h-.22a31,31,0,0,1-3.75-.22,7.89,7.89,0,0,0-3.57-.84,6.85,6.85,0,0,0-.79,0,8,8,0,0,0-7.23,8,5.83,5.83,0,0,1,0,1.13,8,8,0,0,0-4.93-4.6c.1-.67.22-1.34.37-2a32.38,32.38,0,0,1,7-14.15,7.8,7.8,0,0,0-1.73-.81A31.78,31.78,0,0,1,24.36,3,32.5,32.5,0,0,1,35.64,1a31.91,31.91,0,0,1,3.26.16A32.25,32.25,0,0,1,46.79,3a8.71,8.71,0,0,1,3.11,6.7Z"
              stroke-dasharray="103.78746032714844"
              style="stroke-dashoffset: 0px;" />
        <path class="cls-1"
              d="M55.33,20.77A41.18,41.18,0,0,1,55.11,25a10.06,10.06,0,0,0-3.34,4.57V25.81a10,10,0,0,0-.24-2.2,10.07,10.07,0,0,0-5.84-7c.53-.19,1.05-.4,1.57-.62A8.8,8.8,0,0,0,49.9,9.66a8.85,8.85,0,0,0-.59-3.18A10.16,10.16,0,0,1,54,10.77a39.33,39.33,0,0,1,1.15,6.65C55.28,18.52,55.33,19.64,55.33,20.77Z"
              stroke-dasharray="53.97774124145508"
              style="stroke-dashoffset: 0px;" />
        <path class="cls-1"
              d="M18.29,28.78h.82a0,0,0,0,1,0,0V38.88a0,0,0,0,1,0,0h-.82A3.33,3.33,0,0,1,15,35.54V32.12A3.33,3.33,0,0,1,18.29,28.78Z"
              stroke-dasharray="25.563432693481445"
              style="stroke-dashoffset: 0px;" />
        <path class="cls-1"
              d="M14.91,31.16h0a0,0,0,0,1,0,0V36.5a0,0,0,0,1,0,0h0a1.15,1.15,0,0,1-1.15-1.15V32.3a1.15,1.15,0,0,1,1.15-1.15Z"
              stroke-dasharray="12.013355255126953"
              style="stroke-dashoffset: 0px;" />
        <path class="cls-1"
              d="M55.1,28.78h.82a0,0,0,0,1,0,0V38.88a0,0,0,0,1,0,0H55.1a3.33,3.33,0,0,1-3.33-3.33V32.12a3.33,3.33,0,0,1,3.33-3.33Z"
              transform="translate(107.69 67.66) rotate(180)"
              stroke-dasharray="25.64298439025879"
              style="stroke-dashoffset: 0px;" />
        <path class="cls-1"
              d="M57.07,31.16h0a0,0,0,0,1,0,0V36.5a0,0,0,0,1,0,0h0a1.15,1.15,0,0,1-1.15-1.15V32.3a1.15,1.15,0,0,1,1.15-1.15Z"
              transform="translate(113.04 67.66) rotate(180)"
              stroke-dasharray="12.013362884521484"
              style="stroke-dashoffset: 0px;" />
        <path class="cls-1"
              d="M40.78,46.6V45.41A13.93,13.93,0,0,0,53,38.88h1.18C51.77,43.63,46.24,46.6,40.78,46.6Z"
              stroke-dasharray="33.10723114013672"
              style="stroke-dashoffset: 0px;" />
        <rect class="cls-1"
              x="34.85"
              y="44.52"
              width="5.94"
              height="3.56"
              rx="1.75"
              ry="1.75"
              stroke-dasharray="14.899494171142578"
              style="stroke-dashoffset: 0px;" />
        <path class="cls-2"
              d="M35.44,63.22,32,65.6l-6,4.15L19.9,56l0-.12a1.76,1.76,0,0,1,.25-1.83L21.83,52A.81.81,0,0,1,23,51.92l.56.5Z"
              stroke-dasharray="49.35308074951172"
              style="stroke-dashoffset: 0px; fill: #0bbbef;" />
        <path class="cls-2"
              d="M51,55.9,51,56l-6,13.73-6-4.15-3.46-2.38,11.88-10.8.55-.5a.82.82,0,0,1,1.19.08l1.72,2.07A1.74,1.74,0,0,1,51,55.9Z"
              stroke-dasharray="49.359291076660156"
              style="stroke-dashoffset: 0px; fill: #0bbbef;" />
        <path class="cls-2"
              d="M69.88,65.52v9a3.49,3.49,0,0,1-3.49,3.49H38.9L37.22,67.37,38.9,65.6l6,4.15L51,56l14.37,3.67A6,6,0,0,1,69.88,65.52Z"
              stroke-dasharray="100.31148529052734"
              style="stroke-dashoffset: 0px; fill: #0bbbef;" />
        <path class="cls-2"
              d="M33.66,67.37,32,78.06H4.49A3.49,3.49,0,0,1,1,74.57v-9a6,6,0,0,1,4.53-5.83L19.9,56l6,13.73,6-4.15Z"
              stroke-dasharray="100.40208435058594"
              style="stroke-dashoffset: 0px; fill: #0bbbef;" />
        <polygon class="cls-1"
                 points="37.22 67.37 38.9 78.06 31.98 78.06 33.66 67.37 31.98 65.6 35.44 63.22 38.9 65.6 37.22 67.37"
                 stroke-dasharray="41.84215545654297"
                 style="stroke-dashoffset: 0px;" />
        <polygon class="cls-1"
                 points="38.9 65.6 37.22 67.37 33.66 67.37 31.98 65.6 35.44 63.22 38.9 65.6"
                 stroke-dasharray="16.839750289916992"
                 style="stroke-dashoffset: 0px;" />
        <polygon class="cls-1"
                 points="38.9 78.06 31.98 78.06 33.66 67.37 37.22 67.37 38.9 78.06"
                 stroke-dasharray="32.122406005859375"
                 style="stroke-dashoffset: 0px;" />
        <path class="cls-1"
              d="M47.32,48v4.42L35.44,63.22,23.57,52.42V48c2.12,2.53,4.53,4.53,6.11,4.53H41.21C42.78,52.53,45.2,50.53,47.32,48Z"
              stroke-dasharray="68.02415466308594"
              style="stroke-dashoffset: 0px;" />
        <path class="cls-1"
              d="M51.53,23.61a10.07,10.07,0,0,0-5.84-7,31.77,31.77,0,0,1-6.55,1.66,30.48,30.48,0,0,1-3.6.31,8.42,8.42,0,0,1-.87,0h-.22a31,31,0,0,1-3.75-.22,7.89,7.89,0,0,0-3.57-.84,6.85,6.85,0,0,0-.79,0,8,8,0,0,0-7.23,8c0,.09,0,.17,0,.26V39.47c0,2.08,2,5.65,4.46,8.53,2.11,2.53,4.53,4.53,6.11,4.53H41.21c1.57,0,4-2,6.11-4.53a27.63,27.63,0,0,0,3.25-4.8,13.17,13.17,0,0,0,1-2.48,5.46,5.46,0,0,0,.18-1.25V25.81A10,10,0,0,0,51.53,23.61Z"
              stroke-dasharray="117.44972229003906"
              style="stroke-dashoffset: 0px;" />
    </g>
</svg>