<?xml version="1.0" encoding="utf-8"?>
<svg viewBox="0 0 512 512"
     xmlns="http://www.w3.org/2000/svg"
     xmlns:xlink="http://www.w3.org/1999/xlink">
    <style>:root&gt;svg{display:none}:root&gt;svg:target{display:block}</style>
    <svg viewBox="0 0 7 12"
         id="right"
         xmlns="http://www.w3.org/2000/svg">
        <path d="M1 1l5 5-5 5" />
    </svg>
    <svg class="bteam-item__icon"
         viewBox="0 0 70.88 79.06"
         id="team-1">
        <defs>
            <style>.cls-1,.cls-2{fill:none;stroke:#000;stroke-linecap:round;stroke-linejoin:round;stroke-width:2px}.cls-2{fill:#fff}</style>
        </defs>
        <path class="bcls-1"
              d="M49.9 9.66a8.8 8.8 0 01-2.64 6.28c-.52.22-1 .43-1.57.62a31.77 31.77 0 01-6.55 1.66 30.48 30.48 0 01-3.6.31 8.42 8.42 0 01-.87 0h-.22a31 31 0 01-3.75-.22 7.89 7.89 0 00-3.57-.84 6.85 6.85 0 00-.79 0 8 8 0 00-7.23 8 5.83 5.83 0 010 1.13 8 8 0 00-4.93-4.6c.1-.67.22-1.34.37-2a32.38 32.38 0 017-14.15 7.8 7.8 0 00-1.73-.81A31.78 31.78 0 0124.36 3a32.5 32.5 0 0111.28-2 31.91 31.91 0 013.26.16A32.25 32.25 0 0146.79 3a8.71 8.71 0 013.11 6.7z"
              stroke-dasharray="103.787" />
        <path class="bcls-1"
              d="M55.33 20.77a41.18 41.18 0 01-.22 4.23 10.06 10.06 0 00-3.34 4.57v-3.76a10 10 0 00-.24-2.2 10.07 10.07 0 00-5.84-7c.53-.19 1.05-.4 1.57-.62a8.8 8.8 0 002.64-6.33 8.85 8.85 0 00-.59-3.18A10.16 10.16 0 0154 10.77a39.33 39.33 0 011.15 6.65c.13 1.1.18 2.22.18 3.35z"
              stroke-dasharray="53.978" />
        <path class="bcls-1"
              d="M18.29 28.78h.82v10.1h-.82A3.33 3.33 0 0115 35.54v-3.42a3.33 3.33 0 013.29-3.34z"
              stroke-dasharray="25.563" />
        <path class="bcls-1"
              d="M14.91 31.16v5.34a1.15 1.15 0 01-1.15-1.15V32.3a1.15 1.15 0 011.15-1.15z"
              stroke-dasharray="12.013" />
        <path class="bcls-1"
              d="M55.1 28.78h.82v10.1h-.82a3.33 3.33 0 01-3.33-3.33v-3.43a3.33 3.33 0 013.33-3.33z"
              transform="rotate(180 53.845 33.83)"
              stroke-dasharray="25.643" />
        <path class="bcls-1"
              d="M57.07 31.16v5.34a1.15 1.15 0 01-1.15-1.15V32.3a1.15 1.15 0 011.15-1.15z"
              transform="rotate(180 56.52 33.83)"
              stroke-dasharray="12.013" />
        <path class="bcls-1"
              d="M40.78 46.6v-1.19A13.93 13.93 0 0053 38.88h1.18c-2.41 4.75-7.94 7.72-13.4 7.72z"
              stroke-dasharray="33.107" />
        <rect class="bcls-1"
              x="34.85"
              y="44.52"
              width="5.94"
              height="3.56"
              rx="1.75"
              ry="1.75"
              stroke-dasharray="14.899" />
        <path class="bcls-2"
              d="M35.44 63.22L32 65.6l-6 4.15L19.9 56v-.12a1.76 1.76 0 01.25-1.83L21.83 52a.81.81 0 011.17-.08l.56.5z"
              stroke-dasharray="49.353"
              fill="#0bbbef" />
        <path class="bcls-2"
              d="M51 55.9v.1l-6 13.73-6-4.15-3.46-2.38 11.88-10.8.55-.5a.82.82 0 011.19.08l1.72 2.07A1.74 1.74 0 0151 55.9z"
              stroke-dasharray="49.359"
              fill="#0bbbef" />
        <path class="bcls-2"
              d="M69.88 65.52v9a3.49 3.49 0 01-3.49 3.49H38.9l-1.68-10.64 1.68-1.77 6 4.15L51 56l14.37 3.67a6 6 0 014.51 5.85z"
              stroke-dasharray="100.311"
              fill="#0bbbef" />
        <path class="bcls-2"
              d="M33.66 67.37L32 78.06H4.49A3.49 3.49 0 011 74.57v-9a6 6 0 014.53-5.83L19.9 56l6 13.73 6-4.15z"
              stroke-dasharray="100.402"
              fill="#0bbbef" />
        <path class="bcls-1"
              stroke-dasharray="41.842"
              d="M37.22 67.37l1.68 10.69h-6.92l1.68-10.69-1.68-1.77 3.46-2.38 3.46 2.38-1.68 1.77z" />
        <path class="bcls-1"
              stroke-dasharray="16.84"
              d="M38.9 65.6l-1.68 1.77h-3.56l-1.68-1.77 3.46-2.38 3.46 2.38z" />
        <path class="bcls-1"
              stroke-dasharray="32.122"
              d="M38.9 78.06h-6.92l1.68-10.69h3.56l1.68 10.69z" />
        <path class="bcls-1"
              d="M47.32 48v4.42l-11.88 10.8-11.87-10.8V48c2.12 2.53 4.53 4.53 6.11 4.53h11.53c1.57 0 3.99-2 6.11-4.53z"
              stroke-dasharray="68.024" />
        <path class="bcls-1"
              d="M51.53 23.61a10.07 10.07 0 00-5.84-7 31.77 31.77 0 01-6.55 1.66 30.48 30.48 0 01-3.6.31 8.42 8.42 0 01-.87 0h-.22a31 31 0 01-3.75-.22 7.89 7.89 0 00-3.57-.84 6.85 6.85 0 00-.79 0 8 8 0 00-7.23 8v13.95c0 2.08 2 5.65 4.46 8.53 2.11 2.53 4.53 4.53 6.11 4.53h11.53c1.57 0 4-2 6.11-4.53a27.63 27.63 0 003.25-4.8 13.17 13.17 0 001-2.48 5.46 5.46 0 00.18-1.25V25.81a10 10 0 00-.22-2.2z"
              stroke-dasharray="117.45" />
    </svg>
    <svg class="cteam-item__icon"
         id="team-2"
         viewBox="0 0 70.87 79.06">
        <defs>
            <style>.cls-3,.cls-4{fill:none;stroke:#000;stroke-linecap:round;stroke-linejoin:round;stroke-width:2px}.cls-4{fill:#fff}</style>
        </defs>
        <path class="ccls-3"
              d="M49.89 9.66a8.72 8.72 0 01-.63 3.34 8.86 8.86 0 01-2 3c-.52.22-1 .43-1.56.62a31.7 31.7 0 01-6.56 1.66 30.3 30.3 0 01-3.6.31 8.42 8.42 0 01-.87 0h-.21a30.84 30.84 0 01-3.75-.22 8 8 0 00-3.58-.84 6.85 6.85 0 00-.79 0 8 8 0 00-7.23 8 5.83 5.83 0 010 1.13 8 8 0 00-4.93-4.6c.1-.67.23-1.34.37-2a32.38 32.38 0 017-14.15 7.8 7.8 0 00-1.73-.81A31.78 31.78 0 0124.35 3a32.51 32.51 0 0111.29-2 32.46 32.46 0 0111.15 2 8.74 8.74 0 013.1 6.7z"
              stroke-dasharray="103.861" />
        <path class="ccls-3"
              d="M55.32 20.77A38.48 38.48 0 0155.1 25a10.06 10.06 0 00-3.34 4.57v-3.76a10 10 0 00-.24-2.2 10.08 10.08 0 00-5.83-7c.53-.19 1-.4 1.56-.62a8.86 8.86 0 002-3 8.72 8.72 0 00.63-3.29 8.85 8.85 0 00-.59-3.18A10.16 10.16 0 0154 10.77a38.35 38.35 0 011.15 6.65c.13 1.1.17 2.22.17 3.35z"
              stroke-dasharray="53.904" />
        <path class="ccls-4"
              d="M35.43 63.22L32 65.6l-6 4.15L19.89 56l-.05-.12a1.74 1.74 0 01.26-1.83L21.82 52a.82.82 0 011.18-.08l.55.5z"
              stroke-dasharray="49.391"
              fill="#0bbbef" />
        <path class="ccls-4"
              d="M51 55.9v.1l-6 13.73-6-4.15-3.47-2.38 11.88-10.8.55-.5a.82.82 0 011.19.08l1.72 2.07A1.76 1.76 0 0151 55.9z"
              stroke-dasharray="49.366"
              fill="#0bbbef" />
        <path class="ccls-4"
              d="M69.87 65.52v9a3.49 3.49 0 01-3.49 3.49H38.9l-1.69-10.64 1.69-1.77 6 4.15L51 56l14.36 3.67a6 6 0 014.51 5.85z"
              stroke-dasharray="100.3"
              fill="#0bbbef" />
        <path class="ccls-4"
              d="M33.65 67.37L32 78.06H4.48A3.48 3.48 0 011 74.57v-9a6 6 0 014.53-5.83L19.89 56l6 13.73 6-4.15z"
              stroke-dasharray="100.394"
              fill="#0bbbef" />
        <path class="ccls-3"
              stroke-dasharray="41.869"
              d="M37.21 67.37l1.69 10.69h-6.93l1.68-10.69-1.68-1.77 3.46-2.38 3.47 2.38-1.69 1.77z" />
        <path class="ccls-3"
              stroke-dasharray="16.855"
              d="M38.9 65.6l-1.69 1.77h-3.56l-1.68-1.77 3.46-2.38 3.47 2.38z" />
        <path class="ccls-3"
              stroke-dasharray="32.134"
              d="M38.9 78.06h-6.93l1.68-10.69h3.56l1.69 10.69z" />
        <path class="ccls-3"
              d="M47.31 48v4.42l-11.88 10.8-11.87-10.8V48c2.12 2.53 4.53 4.53 6.11 4.53H41.2c1.57 0 3.99-2 6.11-4.53z"
              stroke-dasharray="68.024" />
        <path class="ccls-3"
              d="M51.52 23.61a10.08 10.08 0 00-5.83-7 31.7 31.7 0 01-6.56 1.66 30.3 30.3 0 01-3.6.31 8.42 8.42 0 01-.87 0h-.21a30.84 30.84 0 01-3.75-.22 8 8 0 00-3.58-.84 6.85 6.85 0 00-.79 0 8 8 0 00-7.23 8 2.28 2.28 0 000 .26v13.69c0 2.08 2 5.65 4.46 8.53 2.12 2.53 4.53 4.53 6.11 4.53H41.2c1.57 0 4-2 6.11-4.53a27.63 27.63 0 003.25-4.8 12 12 0 001-2.48 5 5 0 00.18-1.25V25.81a10 10 0 00-.22-2.2z"
              stroke-dasharray="117.451" />
        <rect class="ccls-3"
              x="38.2"
              y="28.25"
              width="9.56"
              height="6.62"
              rx="1.04"
              ry="1.04"
              stroke-dasharray="29.923" />
        <rect class="ccls-3"
              x="23.1"
              y="28.25"
              width="9.56"
              height="6.62"
              rx="1.04"
              ry="1.04"
              stroke-dasharray="29.923" />
        <path class="ccls-3"
              d="M32.67 32.06a2.77 2.77 0 115.53 0"
              stroke-dasharray="9.035" />
    </svg>
    <svg class="dteam-item__icon"
         id="team-3"
         viewBox="0 0 91.32 79.07">
        <defs>
            <style>.cls-5{fill:none;stroke:#000;stroke-linecap:round;stroke-linejoin:round;stroke-width:2px}</style>
        </defs>
        <path class="dcls-5"
              d="M45.69 72.62A73 73 0 0057 78.07s33.29-11.7 33.29-36V14.79S75.92 13.59 57 1C38.14 13.59 23.75 14.79 23.75 14.79v13.28"
              stroke-dasharray="177.754" />
        <path class="dcls-5"
              d="M8.32 73.07h30.32a3.43 3.43 0 00-.26 1.33A3.67 3.67 0 0042 78.07"
              stroke-dasharray="37.4" />
        <path class="dcls-5"
              d="M49.35 28.07H12a3.66 3.66 0 00-3.66 3.66v41.34H1.26A3.43 3.43 0 001 74.4a3.67 3.67 0 003.66 3.67H42a3.67 3.67 0 003.66-3.67V33.07h7.06a3.52 3.52 0 00.28-1.34 3.66 3.66 0 00-3.65-3.66z"
              stroke-dasharray="197.243" />
        <path d="M53 31.72v.34a3.33 3.33 0 01-.24 1h-7.07V74.4A3.66 3.66 0 0142 78.06H4.66A3.66 3.66 0 011 74.4a3.52 3.52 0 01.26-1.34h7.06V31.72A3.66 3.66 0 0112 28.06h37.35A3.66 3.66 0 0153 31.72z"
              stroke-dasharray="197.285"
              fill="#0bbbef"
              stroke="#000"
              stroke-linecap="round"
              stroke-linejoin="round"
              stroke-width="2" />
        <path class="dcls-5"
              d="M49.35 28.07a3.64 3.64 0 00-3.65 3.65v1.35"
              stroke-dasharray="7.088" />
        <path class="dcls-5"
              stroke-dasharray="9.91"
              d="M21.47 39.21h9.91" />
        <path class="dcls-5"
              stroke-dasharray="26.92"
              d="M13.55 44.46h26.92m-26.92 4h26.92m-26.92 4h26.92" />
        <path class="dcls-5"
              stroke-dasharray="9.92"
              d="M13.55 58.46h9.92m-9.92 4h9.92" />
        <circle class="dcls-5"
                cx="36.03"
                cy="62.48"
                r="4.44"
                stroke-dasharray="27.186" />
    </svg>
    <svg viewBox="0 0 512 512"
         id="team-4"
         xmlns="http://www.w3.org/2000/svg">
        <path d="M472 40h-8V24c0-13.234-10.766-24-24-24s-24 10.766-24 24v16H96V24C96 10.766 85.234 0 72 0S48 10.766 48 24v16h-8C17.944 40 0 57.944 0 80v352c0 22.056 17.944 40 40 40h88a8 8 0 000-16H40c-13.234 0-24-10.766-24-24V128h384a8 8 0 000-16H16V80c0-13.234 10.766-24 24-24h8v16c0 13.234 10.766 24 24 24s24-10.766 24-24V56h320v16c0 13.234 10.766 24 24 24s24-10.766 24-24V56h8c13.234 0 24 10.766 24 24v32h-16a8 8 0 000 16h16v304c0 13.234-10.766 24-24 24h-88.002a8 8 0 000 16H472c22.056 0 40-17.944 40-40V80c0-22.056-17.944-40-40-40zM80 72c0 4.411-3.589 8-8 8s-8-3.589-8-8V24c0-4.411 3.589-8 8-8s8 3.589 8 8v48zm360 8c-4.411 0-8-3.589-8-8V24c0-4.411 3.589-8 8-8s8 3.589 8 8v23.981l-.001.019.001.019V72c0 4.411-3.589 8-8 8z" />
        <path d="M448 128a8 8 0 000-16h-16a8 8 0 000 16h16zm-200 72h16a8 8 0 000-16h-16a8 8 0 000 16zm0 40h16a8 8 0 000-16h-16a8 8 0 000 16zm56-40h16a8 8 0 000-16h-16a8 8 0 000 16zm0 40h16a8 8 0 000-16h-16a8 8 0 000 16zm-112-40h16a8 8 0 000-16h-16a8 8 0 000 16zm0 40h16a8 8 0 000-16h-16a8 8 0 000 16zm-56-40h16a8 8 0 000-16h-16a8 8 0 000 16zm0 40h16a8 8 0 000-16h-16a8 8 0 000 16zm0 40h16a8 8 0 000-16h-16a8 8 0 000 16zm-5.66 37.66A8.068 8.068 0 00136 320c2.11 0 4.17-.85 5.66-2.34 1.49-1.49 2.34-3.56 2.34-5.66s-.85-4.17-2.34-5.66A8.05 8.05 0 00136 304c-2.11 0-4.17.85-5.66 2.34A8.05 8.05 0 00128 312c0 2.11.85 4.17 2.34 5.66zM360 200h16a8 8 0 000-16h-16a8 8 0 000 16zm0 40h16a8 8 0 000-16h-16a8 8 0 000 16zm0 40h16a8 8 0 000-16h-16a8 8 0 000 16zm10.34 26.34A8.05 8.05 0 00368 312c0 2.11.85 4.17 2.34 5.66A8.05 8.05 0 00376 320c2.11 0 4.17-.85 5.66-2.34A8.068 8.068 0 00384 312c0-2.11-.85-4.17-2.34-5.66A8.068 8.068 0 00376 304c-2.11 0-4.17.85-5.66 2.34zM408 192a8 8 0 008 8h16a8 8 0 000-16h-16a8 8 0 00-8 8zm8 48h16a8 8 0 000-16h-16a8 8 0 000 16zm0 40h16a8 8 0 000-16h-16a8 8 0 000 16zm0 40h16a8 8 0 000-16h-16a8 8 0 000 16zm0 40h16a8 8 0 000-16h-16a8 8 0 000 16zm0 40h16a8 8 0 000-16h-16a8 8 0 000 16zM96 184H80a8 8 0 000 16h16a8 8 0 000-16zm0 40H80a8 8 0 000 16h16a8 8 0 000-16zm0 40H80a8 8 0 000 16h16a8 8 0 000-16zm0 40H80a8 8 0 000 16h16a8 8 0 000-16zm0 40H80a8 8 0 000 16h16a8 8 0 000-16zm0 40H80a8 8 0 000 16h16a8 8 0 000-16zm160-112c-66.168 0-120 53.832-120 120s53.832 120 120 120 120-53.832 120-120-53.832-120-120-120zm8 223.695V488a8 8 0 00-16 0v7.695c-50.982-3.896-91.799-44.714-95.695-95.695H160a8 8 0 000-16h-7.695c3.896-50.982 44.714-91.799 95.695-95.695V296a8 8 0 0016 0v-7.695c50.982 3.896 91.799 44.714 95.695 95.695H352a8 8 0 000 16h7.695c-3.896 50.982-44.713 91.799-95.695 95.695z" />
        <path d="M320 384h-41.376A24.114 24.114 0 00264 369.376V328a8 8 0 00-16 0v41.376c-9.311 3.302-16 12.195-16 22.624 0 13.234 10.766 24 24 24 10.429 0 19.322-6.689 22.624-16H320a8 8 0 000-16zm-64 16c-4.411 0-8-3.589-8-8s3.589-8 8-8 8 3.589 8 8-3.589 8-8 8z" />
    </svg>
</svg>